HIERARCHY
ROOT Hips
{
	OFFSET 0.000000 71.427986 0.000000
	CHANNELS 6 Xposition Yposition Zposition Xrotation Yrotation Zrotation
	JOINT Pelvis
	{
		OFFSET 0.000000 0.000000 0.000000
		CHANNELS 3 Xrotation Yrotation Zrotation
		JOINT LeftUpLeg
		{
			OFFSET 6.797100 -2.508499 -1.318700
			CHANNELS 3 Xrotation Yrotation Zrotation
			JOINT LeftLeg
			{
				OFFSET 0.069008 -29.241863 0.690200
				CHANNELS 3 Xrotation Yrotation Zrotation
				JOINT LeftFoot
				{
					OFFSET -0.069008 -29.568123 -0.266800
					CHANNELS 3 Xrotation Yrotation Zrotation
					JOINT LeftToeBase
					{
						OFFSET 3.145500 -8.631000 16.059900
						CHANNELS 3 Xrotation Yrotation Zrotation
						End Site
						{
							OFFSET 0.000000 18.501587 0.000000
						}
					}
				}
			}
			JOINT Left_ShortSleeve
			{
				OFFSET 0.265923 -10.480953 1.153800
				CHANNELS 3 Xrotation Yrotation Zrotation
				End Site
				{
					OFFSET 1.725763 19.823879 0.000000
				}
			}
		}
		JOINT RightUpLeg
		{
			OFFSET -6.797100 -2.508499 -1.318700
			CHANNELS 3 Xrotation Yrotation Zrotation
			JOINT RightLeg
			{
				OFFSET -0.082453 -29.241932 0.688000
				CHANNELS 3 Xrotation Yrotation Zrotation
				JOINT RightFoot
				{
					OFFSET 0.082453 -29.568058 -0.264600
					CHANNELS 3 Xrotation Yrotation Zrotation
					JOINT RightToeBase
					{
						OFFSET -3.115300 -8.682800 16.113400
						CHANNELS 3 Xrotation Yrotation Zrotation
						End Site
						{
							OFFSET 0.000000 18.567114 0.000000
						}
					}
				}
			}
			JOINT Right_ShortSleeve
			{
				OFFSET -0.265923 -10.480953 1.153800
				CHANNELS 3 Xrotation Yrotation Zrotation
				End Site
				{
					OFFSET -1.725766 19.823910 0.000000
				}
			}
		}
	}
	JOINT Spine
	{
		OFFSET 0.000000 13.368103 0.470500
		CHANNELS 3 Xrotation Yrotation Zrotation
		JOINT Spine1
		{
			OFFSET 0.147000 13.837402 0.538800
			CHANNELS 3 Xrotation Yrotation Zrotation
			JOINT Spine2
			{
				OFFSET 0.168000 16.242897 -1.435500
				CHANNELS 3 Xrotation Yrotation Zrotation
				JOINT Neck
				{
					OFFSET 0.217200 18.631500 -1.679100
					CHANNELS 3 Xrotation Yrotation Zrotation
					JOINT Head
					{
						OFFSET 0.000000 6.599396 1.385900
						CHANNELS 3 Xrotation Yrotation Zrotation
						JOINT Hat
						{
							OFFSET -0.532200 27.220596 -10.096100
							CHANNELS 3 Xrotation Yrotation Zrotation
							End Site
							{
								OFFSET 0.000000 22.029861 0.000000
							}
						}
						JOINT HairD
						{
							OFFSET -10.777400 17.437393 -1.325900
							CHANNELS 3 Xrotation Yrotation Zrotation
							JOINT HairD1
							{
								OFFSET -3.290299 -11.051193 1.062200
								CHANNELS 3 Xrotation Yrotation Zrotation
								End Site
								{
									OFFSET 0.000000 11.579437 0.000000
								}
							}
						}
						JOINT HairB
						{
							OFFSET -10.777400 17.437393 1.467900
							CHANNELS 3 Xrotation Yrotation Zrotation
							JOINT HairB1
							{
								OFFSET -1.561200 -12.956299 3.590200
								CHANNELS 3 Xrotation Yrotation Zrotation
								End Site
								{
									OFFSET 0.000000 13.534866 0.000000
								}
							}
						}
						JOINT HairA
						{
							OFFSET 9.713100 17.437393 1.467900
							CHANNELS 3 Xrotation Yrotation Zrotation
							JOINT HairA1
							{
								OFFSET 1.561200 -12.956299 3.590200
								CHANNELS 3 Xrotation Yrotation Zrotation
								End Site
								{
									OFFSET 0.000000 13.534866 0.000000
								}
							}
						}
						JOINT HairC
						{
							OFFSET 9.713100 17.437393 -1.325900
							CHANNELS 3 Xrotation Yrotation Zrotation
							JOINT HairC1
							{
								OFFSET 3.290300 -11.051193 1.062200
								CHANNELS 3 Xrotation Yrotation Zrotation
								End Site
								{
									OFFSET 0.000000 11.579437 0.000000
								}
							}
						}
					}
				}
				JOINT LeftShoulder
				{
					OFFSET 5.101800 15.108002 -2.763700
					CHANNELS 3 Xrotation Yrotation Zrotation
					JOINT LeftArm
					{
						OFFSET 9.825497 2.506317 -1.597400
						CHANNELS 3 Xrotation Yrotation Zrotation
						JOINT LeftForeArm
						{
							OFFSET 21.966244 0.000000 0.000000
							CHANNELS 3 Xrotation Yrotation Zrotation
							JOINT LeftHand
							{
								OFFSET 33.879036 0.000000 0.000000
								CHANNELS 3 Xrotation Yrotation Zrotation
								JOINT LeftHandThumb1
								{
									OFFSET 6.715286 -2.359680 3.363841
									CHANNELS 3 Xrotation Yrotation Zrotation
									JOINT LeftHandThumb2
									{
										OFFSET 2.507072 -1.447464 1.447461
										CHANNELS 3 Xrotation Yrotation Zrotation
										JOINT LeftHandThumb3
										{
											OFFSET 2.898338 -1.673355 1.673357
											CHANNELS 3 Xrotation Yrotation Zrotation
											End Site
											{
												OFFSET -0.295959 3.727692 -0.131651
											}
										}
									}
								}
								JOINT LeftHandIndex1
								{
									OFFSET 14.190811 -0.254547 3.840278
									CHANNELS 3 Xrotation Yrotation Zrotation
									JOINT LeftHandIndex2
									{
										OFFSET 3.551727 0.000000 -0.000000
										CHANNELS 3 Xrotation Yrotation Zrotation
										JOINT LeftHandIndex3
										{
											OFFSET 2.894196 0.000000 0.000000
											CHANNELS 3 Xrotation Yrotation Zrotation
											End Site
											{
												OFFSET -1.000603 2.690872 0.366626
											}
										}
									}
								}
								JOINT LeftHandMiddle1
								{
									OFFSET 13.776489 0.000000 0.000000
									CHANNELS 3 Xrotation Yrotation Zrotation
									JOINT LeftHandMiddle2
									{
										OFFSET 3.438232 0.000000 0.000000
										CHANNELS 3 Xrotation Yrotation Zrotation
										JOINT LeftHandMiddle3
										{
											OFFSET 3.691551 0.000000 0.000000
											CHANNELS 3 Xrotation Yrotation Zrotation
											End Site
											{
												OFFSET -1.082298 3.499527 0.457670
											}
										}
									}
								}
								JOINT LeftHandRing1
								{
									OFFSET 13.966164 -0.268127 -3.067488
									CHANNELS 3 Xrotation Yrotation Zrotation
									JOINT LeftHandRing2
									{
										OFFSET 3.162567 0.000000 0.000000
										CHANNELS 3 Xrotation Yrotation Zrotation
										JOINT LeftHandRing3
										{
											OFFSET 3.324348 0.000000 0.000000
											CHANNELS 3 Xrotation Yrotation Zrotation
											End Site
											{
												OFFSET -0.861900 3.184998 0.405154
											}
										}
									}
								}
								JOINT LeftHandPinky1
								{
									OFFSET 13.131393 -0.168503 -5.746925
									CHANNELS 3 Xrotation Yrotation Zrotation
									JOINT LeftHandPinky2
									{
										OFFSET 2.849182 0.000000 0.000000
										CHANNELS 3 Xrotation Yrotation Zrotation
										JOINT LeftHandPinky3
										{
											OFFSET 2.805038 0.000000 0.000000
											CHANNELS 3 Xrotation Yrotation Zrotation
											End Site
											{
												OFFSET -0.882500 2.642609 0.325652
											}
										}
									}
								}
							}
							JOINT Left_Sleeve
							{
								OFFSET 6.592125 -0.646545 0.805568
								CHANNELS 3 Xrotation Yrotation Zrotation
								End Site
								{
									OFFSET -0.000179 20.275787 -0.000000
								}
							}
						}
					}
				}
				JOINT RightShoulder
				{
					OFFSET -5.731700 15.108002 -2.763700
					CHANNELS 3 Xrotation Yrotation Zrotation
					JOINT RightArm
					{
						OFFSET -9.825497 2.506317 -1.597400
						CHANNELS 3 Xrotation Yrotation Zrotation
						JOINT RightForeArm
						{
							OFFSET -21.966242 0.000000 0.000000
							CHANNELS 3 Xrotation Yrotation Zrotation
							JOINT RightHand
							{
								OFFSET -33.879032 0.000000 0.000000
								CHANNELS 3 Xrotation Yrotation Zrotation
								JOINT RightHandThumb1
								{
									OFFSET -6.715286 -2.359680 3.363841
									CHANNELS 3 Xrotation Yrotation Zrotation
									JOINT RightHandThumb2
									{
										OFFSET -2.507072 -1.447464 1.447461
										CHANNELS 3 Xrotation Yrotation Zrotation
										JOINT RightHandThumb3
										{
											OFFSET -2.898338 -1.673355 1.673357
											CHANNELS 3 Xrotation Yrotation Zrotation
											End Site
											{
												OFFSET 0.295959 3.727692 -0.131651
											}
										}
									}
								}
								JOINT RightHandIndex1
								{
									OFFSET -14.190811 -0.254547 3.840278
									CHANNELS 3 Xrotation Yrotation Zrotation
									JOINT RightHandIndex2
									{
										OFFSET -3.551727 0.000000 -0.000000
										CHANNELS 3 Xrotation Yrotation Zrotation
										JOINT RightHandIndex3
										{
											OFFSET -2.894196 0.000000 0.000000
											CHANNELS 3 Xrotation Yrotation Zrotation
											End Site
											{
												OFFSET 1.000603 2.690872 0.366626
											}
										}
									}
								}
								JOINT RightHandMiddle1
								{
									OFFSET -13.776489 0.000000 0.000000
									CHANNELS 3 Xrotation Yrotation Zrotation
									JOINT RightHandMiddle2
									{
										OFFSET -3.438232 0.000000 0.000000
										CHANNELS 3 Xrotation Yrotation Zrotation
										JOINT RightHandMiddle3
										{
											OFFSET -3.691551 0.000000 0.000000
											CHANNELS 3 Xrotation Yrotation Zrotation
											End Site
											{
												OFFSET 1.082298 3.499527 0.457670
											}
										}
									}
								}
								JOINT RightHandRing1
								{
									OFFSET -13.966164 -0.268127 -3.067488
									CHANNELS 3 Xrotation Yrotation Zrotation
									JOINT RightHandRing2
									{
										OFFSET -3.162567 0.000000 0.000000
										CHANNELS 3 Xrotation Yrotation Zrotation
										JOINT RightHandRing3
										{
											OFFSET -3.324348 0.000000 0.000000
											CHANNELS 3 Xrotation Yrotation Zrotation
											End Site
											{
												OFFSET 0.861900 3.184998 0.405154
											}
										}
									}
								}
								JOINT RightHandPinky1
								{
									OFFSET -13.131393 -0.168503 -5.746925
									CHANNELS 3 Xrotation Yrotation Zrotation
									JOINT RightHandPinky2
									{
										OFFSET -2.849182 0.000000 0.000000
										CHANNELS 3 Xrotation Yrotation Zrotation
										JOINT RightHandPinky3
										{
											OFFSET -2.805038 0.000000 0.000000
											CHANNELS 3 Xrotation Yrotation Zrotation
											End Site
											{
												OFFSET 0.882500 2.642609 0.325652
											}
										}
									}
								}
							}
							JOINT Right_Sleeve
							{
								OFFSET -6.592125 -0.646545 0.805568
								CHANNELS 3 Xrotation Yrotation Zrotation
								End Site
								{
									OFFSET 0.000179 20.275787 -0.000000
								}
							}
						}
					}
				}
				JOINT Bind_Right_JacketString
				{
					OFFSET -3.534800 11.969597 7.200700
					CHANNELS 3 Xrotation Yrotation Zrotation
					JOINT Bind_Right_JacketString1
					{
						OFFSET -0.319900 -6.102600 2.794100
						CHANNELS 3 Xrotation Yrotation Zrotation
						End Site
						{
							OFFSET 0.000000 6.719452 0.000000
						}
					}
				}
				JOINT Bind_Left_JacketString
				{
					OFFSET 2.904800 11.969597 7.200700
					CHANNELS 3 Xrotation Yrotation Zrotation
					JOINT Bind_Left_JacketString1
					{
						OFFSET 0.364800 -5.904503 3.186800
						CHANNELS 3 Xrotation Yrotation Zrotation
						End Site
						{
							OFFSET 0.000000 6.719513 0.000000
						}
					}
				}
				JOINT HairE
				{
					OFFSET 5.915200 17.612701 -11.592200
					CHANNELS 3 Xrotation Yrotation Zrotation
					JOINT HairE1
					{
						OFFSET 0.289200 -7.171898 -1.284500
						CHANNELS 3 Xrotation Yrotation Zrotation
						End Site
						{
							OFFSET 0.000000 7.291756 0.000000
						}
					}
				}
				JOINT HairF
				{
					OFFSET -0.864800 17.612701 -11.592200
					CHANNELS 3 Xrotation Yrotation Zrotation
					JOINT HairF1
					{
						OFFSET 0.000000 -14.087097 -2.127501
						CHANNELS 3 Xrotation Yrotation Zrotation
						End Site
						{
							OFFSET 0.000000 14.246841 0.000000
						}
					}
				}
				JOINT HairG
				{
					OFFSET -8.087700 17.612701 -11.592200
					CHANNELS 3 Xrotation Yrotation Zrotation
					JOINT HairG1
					{
						OFFSET -0.293600 -6.081398 -0.910100
						CHANNELS 3 Xrotation Yrotation Zrotation
						End Site
						{
							OFFSET 0.000000 6.156120 0.000000
						}
					}
				}
			}
		}
	}
	JOINT Pouch
	{
		OFFSET 0.000000 4.394501 10.847300
		CHANNELS 3 Xrotation Yrotation Zrotation
		End Site
		{
			OFFSET 0.000000 21.880577 0.000000
		}
	}
	JOINT Bag
	{
		OFFSET -13.229000 4.813004 -0.593300
		CHANNELS 3 Xrotation Yrotation Zrotation
		End Site
		{
			OFFSET 0.000000 21.880577 0.000000
		}
	}
	JOINT OccupyGuyFacialAnim_Joint
	{
		OFFSET 1.000000 -70.206398 -1.655000
		CHANNELS 3 Xrotation Yrotation Zrotation
		End Site
		{
			OFFSET 0.000000 21.880577 0.000000
		}
	}
}
MOTION
Frames: 4
Frame Time: 0.033333
-1.301644 113.660713 -10.614516 -12.745294 4.453624 -5.941815 0.000001 -0.000000 0.000000 -86.428497 -6.219231 -7.631118 79.601429 7.079332 -0.238035 -20.778279 -26.622061 -28.484891 0.000000 -0.000000 0.000000 0.000001 -0.000000 0.000001 -73.060095 -7.023551 -5.931262 62.566083 1.950806 5.091716 18.025651 1.833162 26.517041 0.000000 -0.000000 0.000000 -0.000001 0.000000 -0.000000 7.360265 -1.778950 -4.438190 11.331763 -1.477837 -8.476407 11.376117 -0.222955 -8.693831 10.694633 -2.390676 15.245083 -20.804353 23.201586 -12.609874 -0.000000 0.000002 0.000000 -0.000000 0.000002 0.000000 -0.000000 0.000002 0.000002 -0.000000 0.000002 0.000000 -0.000000 0.000000 0.000000 -0.000000 0.000002 0.000000 -0.000000 0.000000 0.000000 -0.000000 0.000002 0.000000 -0.000000 0.000002 0.000000 2.104412 -19.356980 -0.124934 -32.120324 -24.079113 -85.432826 0.000030 -106.130696 0.000052 24.302506 -27.080254 -9.174391 -7.245240 -16.963342 14.985206 61.313167 49.726646 -46.798236 0.000001 -0.000003 0.000001 8.011266 13.735789 -40.496414 6.591727 5.804124 -97.285089 -0.000001 -0.000000 -0.000004 11.864940 7.453972 -97.797599 7.333644 5.660740 -104.702517 0.000000 0.000000 -0.000001 13.064741 8.168337 -90.394979 7.227286 5.687468 -103.626688 -0.000001 0.000002 0.000000 7.928523 7.846755 -110.068464 5.495264 5.840277 -86.507652 0.000001 0.000002 0.000001 -0.000003 -0.000000 0.000001 -0.156032 8.481086 14.196810 -72.113342 10.666554 69.470291 -0.000006 117.521041 -0.000015 -69.780293 8.345288 0.297525 19.450077 20.477665 1.050199 36.430662 -42.891098 22.465841 -0.000002 0.000001 -0.000000 8.024062 -11.756109 46.776434 6.454471 -4.297067 112.723816 -0.000003 0.000001 -0.000001 2.511184 -6.384156 61.840260 5.190640 -4.626570 96.584667 0.000000 -0.000001 0.000001 3.221595 -6.689494 71.121093 5.294229 -4.613494 97.870832 -0.000000 -0.000002 -0.000003 3.930853 -6.866702 80.380029 4.132433 -4.627585 83.523576 -0.000004 -0.000003 0.000000 0.000000 -0.000000 -0.000003 0.000002 -0.000001 -0.000000 0.000003 0.000000 0.000001 0.000002 -0.000001 -0.000000 0.000002 -0.000001 -0.000000 0.000002 -0.000001 -0.000000 0.000003 0.000000 0.000001 0.000002 -0.000001 -0.000000 0.000002 -0.000001 -0.000000 0.000002 -0.000001 -0.000000 0.000003 0.000000 0.000001 0.000001 -0.000000 0.000000 0.000001 -0.000000 0.000000 0.000001 -0.000000 0.000000 
-1.250801 114.539536 -11.126615 -13.142156 4.867674 -6.412474 -0.000001 -0.000000 -0.000000 -84.408707 -5.502312 -7.580594 79.683152 6.989501 -0.339216 -21.745659 -26.118285 -28.012045 0.000000 0.000003 0.000003 0.000000 0.000000 0.000000 -71.622272 -6.194198 -5.185951 62.581492 4.700627 4.160833 16.269663 1.735060 28.769774 -0.000001 -0.000001 0.000000 0.000000 -0.000000 -0.000000 7.276242 -1.709816 -4.250834 11.247387 -1.436849 -8.123199 11.286206 -0.234108 -8.338121 10.741771 -2.804345 15.197014 -27.672901 16.903735 -9.996850 0.000000 -0.000000 0.000002 0.000000 -0.000000 0.000002 0.000000 -0.000000 0.000001 0.000000 -0.000000 0.000002 0.000000 -0.000001 0.000002 0.000000 -0.000000 0.000002 0.000000 -0.000001 0.000002 0.000000 -0.000000 0.000002 0.000000 -0.000000 0.000002 2.018544 -18.943543 -0.455270 -29.448204 -23.883030 -84.182136 -0.000027 -106.482513 -0.000005 23.563516 -27.466001 -9.144690 -6.331337 -16.172956 14.971571 59.110151 49.597671 -44.338105 0.000003 0.000002 -0.000001 7.171796 13.255940 -38.471512 6.347196 5.830044 -94.872728 0.000002 0.000001 -0.000003 11.192330 7.806243 -94.585505 7.071737 5.722741 -102.062144 0.000001 -0.000000 0.000001 12.740556 8.483628 -87.784569 7.057701 5.725727 -101.921401 0.000000 -0.000000 -0.000003 8.089904 7.948318 -106.975256 5.359060 5.830424 -85.168081 0.000002 -0.000001 0.000001 -0.000001 -0.000003 -0.000001 -0.185162 8.285199 14.648451 -69.316339 11.278394 69.449999 0.000093 118.433950 -0.000084 -68.123139 8.090475 0.535534 19.450092 20.477662 1.050196 36.430665 -42.891098 22.465857 0.000002 0.000001 -0.000003 8.024076 -11.756111 46.776434 6.454459 -4.297062 112.723796 -0.000004 0.000000 0.000002 2.511188 -6.384154 61.840246 5.190626 -4.626580 96.584694 0.000004 -0.000000 0.000001 3.221601 -6.689499 71.121093 5.294220 -4.613492 97.870832 -0.000001 -0.000001 -0.000000 3.930869 -6.866719 80.380050 4.132425 -4.627574 83.523603 -0.000002 0.000002 0.000001 -0.000000 -0.000001 0.000000 -0.000001 -0.000000 0.000001 0.000000 -0.000000 0.000000 -0.000001 -0.000000 0.000001 -0.000001 -0.000000 0.000001 -0.000001 -0.000000 0.000001 0.000000 -0.000000 0.000001 -0.000001 -0.000000 0.000001 -0.000001 -0.000000 0.000001 -0.000001 -0.000000 0.000001 0.000000 -0.000000 0.000001 -0.000001 -0.000000 -0.000000 -0.000001 -0.000000 -0.000000 -0.000001 -0.000000 -0.000000 
-1.175746 115.608025 -11.697028 -13.397768 5.069861 -6.752042 -0.000001 0.000000 0.000001 -82.055809 -5.099266 -7.761184 78.287949 6.495619 -0.232247 -22.290097 -25.739665 -27.585310 0.000000 -0.000001 -0.000002 0.000000 -0.000000 0.000000 -69.564152 -5.549222 -4.667704 61.200476 5.850153 3.551616 14.399179 1.372465 29.897398 0.000000 -0.000001 -0.000000 -0.000001 -0.000000 -0.000000 7.096473 -1.603996 -4.157460 11.011232 -1.312971 -7.900994 11.043461 -0.167775 -8.100944 10.885991 -3.113210 15.305747 -34.059268 11.002187 -8.038726 -0.000000 0.000000 0.000002 -0.000000 0.000000 0.000002 -0.000000 0.000000 0.000001 -0.000000 0.000000 -0.000000 -0.000000 0.000000 -0.000000 -0.000000 0.000000 -0.000000 -0.000000 0.000000 -0.000000 -0.000000 0.000000 0.000002 -0.000000 0.000000 0.000002 1.940261 -18.460627 -0.712498 -26.553709 -23.895424 -82.799965 -0.000187 -106.374418 -0.000190 22.888416 -27.947795 -8.453488 -4.302581 -14.382760 14.958963 54.257384 49.089379 -39.010663 -0.000000 0.000002 0.000002 5.470850 12.062630 -34.066132 5.807475 5.850877 -89.572583 0.000003 0.000002 0.000004 9.616206 8.370155 -87.500003 6.487957 5.816404 -96.259987 0.000001 0.000001 0.000001 11.960860 9.112014 -82.034349 6.695295 5.790060 -98.310137 -0.000000 0.000001 -0.000002 8.368296 8.299100 -100.171650 5.071879 5.799137 -82.334106 -0.000000 -0.000001 0.000003 -0.000000 -0.000006 -0.000003 -0.212588 7.892688 15.293033 -65.829438 11.824674 69.537862 0.000045 119.527245 -0.000043 -66.232044 8.064366 0.859830 19.450080 20.477664 1.050209 36.430668 -42.891095 22.465858 -0.000000 -0.000001 -0.000001 8.024087 -11.756106 46.776455 6.454476 -4.297057 112.723823 -0.000001 0.000001 -0.000001 2.511199 -6.384137 61.840273 5.190638 -4.626586 96.584687 0.000001 0.000000 -0.000001 3.221622 -6.689495 71.121114 5.294227 -4.613495 97.870839 0.000000 0.000001 0.000002 3.930877 -6.866704 80.380057 4.132433 -4.627587 83.523576 0.000001 -0.000000 -0.000003 0.000000 0.000000 -0.000005 -0.000000 0.000001 0.000002 -0.000000 0.000000 0.000000 -0.000000 0.000001 0.000002 -0.000000 0.000001 0.000002 -0.000000 0.000001 0.000002 -0.000000 0.000000 0.000000 -0.000000 0.000001 0.000002 -0.000000 0.000001 0.000002 -0.000000 0.000001 0.000002 -0.000000 0.000000 0.000000 -0.000001 0.000000 0.000001 -0.000001 0.000000 0.000001 -0.000001 0.000000 0.000001 
-1.065535 116.844727 -12.314899 -13.569732 4.970581 -6.868948 0.000001 -0.000000 0.000001 -79.464620 -4.851975 -7.925430 75.582989 5.985743 0.009460 -22.316127 -25.576326 -27.288520 0.000001 0.000001 0.000002 -0.000000 0.000000 -0.000000 -66.987832 -4.997936 -4.547781 58.461549 4.993554 3.441897 13.173357 1.029778 30.364320 0.000000 -0.000000 0.000001 -0.000000 -0.000000 -0.000000 6.857649 -1.461517 -4.151824 10.694247 -1.115566 -7.798183 10.718999 -0.032396 -7.973164 10.933899 -3.330380 15.585957 -39.602400 6.245785 -6.908396 -0.000001 -0.000001 0.000001 -0.000001 -0.000001 0.000001 -0.000001 -0.000001 0.000001 -0.000001 -0.000001 0.000001 0.000000 -0.000000 -0.000001 -0.000001 -0.000001 0.000001 0.000000 -0.000000 -0.000001 -0.000001 -0.000001 0.000001 -0.000001 -0.000001 0.000001 1.904522 -18.099281 -0.766013 -23.432021 -23.927985 -81.472962 0.000036 -106.162928 0.000021 22.757448 -28.473669 -5.987721 -1.466690 -11.801368 14.831068 47.497480 47.847746 -31.793229 -0.000000 0.000002 0.000000 3.421156 10.078694 -27.948994 5.046834 5.795695 -82.086252 0.000002 0.000000 0.000002 7.286960 8.644410 -77.450083 5.653555 5.847738 -88.062237 -0.000001 0.000003 0.000001 10.744268 9.833907 -73.878850 6.191430 5.841192 -93.340634 -0.000001 0.000003 -0.000000 8.592129 9.033378 -90.543972 4.680283 5.733134 -78.437756 0.000000 -0.000004 -0.000001 -0.000002 -0.000005 -0.000002 -0.228104 7.324545 16.069569 -61.918636 12.388759 69.929608 0.000089 120.856236 -0.000092 -64.217500 8.196855 1.484656 19.450091 20.477664 1.050206 36.430675 -42.891115 22.465839 -0.000001 -0.000001 0.000003 8.024084 -11.756122 46.776434 6.454479 -4.297062 112.723810 -0.000002 0.000002 -0.000003 2.511195 -6.384152 61.840253 5.190624 -4.626582 96.584708 0.000001 0.000000 -0.000002 3.221615 -6.689495 71.121100 5.294236 -4.613500 97.870846 0.000001 -0.000000 -0.000000 3.930872 -6.866725 80.380023 4.132446 -4.627586 83.523583 0.000001 0.000002 -0.000003 0.000000 -0.000000 0.000001 -0.000000 0.000000 -0.000002 -0.000000 -0.000000 -0.000002 -0.000000 0.000000 -0.000000 -0.000000 0.000000 -0.000000 -0.000000 0.000000 -0.000002 -0.000000 -0.000000 -0.000002 -0.000000 0.000000 -0.000000 -0.000000 0.000000 -0.000000 -0.000000 0.000000 -0.000002 -0.000000 -0.000000 -0.000002 0.000001 -0.000000 0.000001 0.000001 -0.000000 0.000001 0.000001 -0.000000 0.000001 
